<?xml version="1.0" standalone="no"?>
<!DOCTYPE svg PUBLIC "-//W3C//DTD SVG 20010904//EN"
 "http://www.w3.org/TR/2001/REC-SVG-20010904/DTD/svg10.dtd">
<svg version="1.0" xmlns="http://www.w3.org/2000/svg"
 width="500.000000pt" height="500.000000pt" viewBox="0 0 500.000000 500.000000"
 preserveAspectRatio="xMidYMid meet">
<metadata>
Created by potrace 1.11, written by Peter Selinger 2001-2013
</metadata>
<g transform="translate(0.000000,500.000000) scale(0.100000,-0.100000)"
fill="#000000" stroke="none">
<path d="M1330 2505 l0 -1845 28 -1 c37 0 565 -1 624 0 l48 1 2 737 3 736 738
-1 737 -1 1 22 c1 26 1 167 0 442 l-1 200 -740 -1 -740 -2 0 449 0 449 824 0
824 0 -1 330 0 330 -1174 0 -1173 0 0 -1845z"/>
</g>
</svg>
